<svg width="1081" height="357" viewBox="0 0 1081 357" fill="none" xmlns="http://www.w3.org/2000/svg">
<path d="M933.466 154.799C883.297 121.364 1101.39 80.8274 1006.2 53.7926C1002.71 52.8998 999.191 52.0162 995.645 51.1418C994.647 50.9175 993.679 50.6794 992.737 50.4276C832.066 11.1595 614.125 -10.331 374.221 4.94679C281.022 10.8803 195.326 22.3626 117.272 37.8876C-24.1728 76.9084 -17.9102 115.572 33.3588 139.645C87.5029 165.063 294.236 157.866 385.67 193.952C410.928 200.417 422.296 209.619 414.117 221.898C380.082 272.983 226.837 354.806 470.799 356.624C714.76 358.441 1063.5 302.078 1079.44 229.347C1095.37 156.617 985.306 189.347 933.468 154.799H933.466Z" fill="#602F0D"/>
</svg>
